<svg width="128" height="48" viewBox="0 0 128 48" fill="none" xmlns="http://www.w3.org/2000/svg">
<g clip-path="url(#clip0_25_7103)">
<path fill-rule="evenodd" clip-rule="evenodd" d="M123.207 31.9803C123.283 32.8499 123.978 33.9567 125.184 33.9567H125.888C126.162 33.9567 126.386 33.7327 126.386 33.4592V17.9535H126.383C126.369 17.6922 126.153 17.483 125.888 17.483H123.704C123.44 17.483 123.224 17.6922 123.21 17.9535H123.207V19.2134C121.868 17.5635 119.758 16.8787 117.642 16.8787C112.831 16.8787 108.932 20.7811 108.932 25.5953C108.932 30.4099 112.831 34.3124 117.642 34.3124C119.758 34.3124 122.065 33.4911 123.207 31.9784V31.9803ZM117.65 31.2617C114.591 31.2617 112.111 28.725 112.111 25.5953C112.111 22.4663 114.591 19.9295 117.65 19.9295C120.71 19.9295 123.19 22.4663 123.19 25.5953C123.19 28.725 120.71 31.2617 117.65 31.2617Z" fill="white"/>
<path fill-rule="evenodd" clip-rule="evenodd" d="M106.169 24.49C106.169 19.9672 103.318 16.916 98.772 16.916C96.6016 16.916 94.8225 18.172 94.1941 19.2509C94.0583 18.4073 93.6108 17.5205 92.223 17.5205H91.5156C91.242 17.5205 91.0186 17.7447 91.0186 18.0182V32.0191C91.0186 32.0196 91.0186 32.0206 91.0186 32.0213V33.5252H91.0213C91.0356 33.786 91.2516 33.9955 91.5158 33.9955H93.7005C93.7339 33.9955 93.7667 33.9915 93.7984 33.9854C93.8129 33.9825 93.8263 33.9768 93.8404 33.9729C93.8566 33.9679 93.8736 33.964 93.889 33.9576C93.9084 33.9496 93.9261 33.9388 93.9441 33.9287C93.953 33.9232 93.9623 33.9194 93.9708 33.9138C93.9926 33.8997 94.0126 33.8827 94.032 33.8655C94.0351 33.8623 94.0389 33.8601 94.0421 33.8572C94.0638 33.8362 94.0837 33.813 94.1012 33.7889C94.1558 33.7138 94.1892 33.6229 94.1947 33.5252H94.1975V24.3656C94.1975 21.9365 96.1654 19.9672 98.5928 19.9672C101.02 19.9672 102.988 21.9365 102.988 24.3656L102.99 32.0218L102.99 32.0191C102.99 32.0259 102.992 32.0329 102.992 32.0401V33.5252H102.994C103.009 33.786 103.225 33.9955 103.489 33.9955H105.674C105.707 33.9955 105.74 33.9915 105.771 33.9854C105.784 33.983 105.796 33.9777 105.809 33.9742C105.827 33.969 105.845 33.9646 105.862 33.9576C105.88 33.9502 105.897 33.9399 105.913 33.9304C105.924 33.9246 105.935 33.9204 105.944 33.9138C105.965 33.9005 105.983 33.8844 106.001 33.8687C106.006 33.8643 106.011 33.8612 106.015 33.8568C106.036 33.8368 106.055 33.8152 106.071 33.7926C106.073 33.7909 106.074 33.7896 106.075 33.7879C106.129 33.7134 106.162 33.6235 106.168 33.5265C106.168 33.5258 106.168 33.5252 106.168 33.5252H106.171L106.169 24.49Z" fill="white"/>
<path fill-rule="evenodd" clip-rule="evenodd" d="M83.4178 31.9803C83.4942 32.8498 84.1898 33.9566 85.3948 33.9566H86.0998C86.3731 33.9566 86.5968 33.7327 86.5968 33.4591V17.9535H86.594C86.5798 17.6922 86.3636 17.483 86.0998 17.483H83.9151C83.6509 17.483 83.4351 17.6922 83.4203 17.9535H83.4178V19.2134C82.0792 17.5635 79.9689 16.8787 77.8526 16.8787C73.0424 16.8787 69.1431 20.7811 69.1431 25.5954C69.1431 30.4098 73.0424 34.3124 77.8526 34.3124C79.9689 34.3124 82.2752 33.4912 83.4176 31.9783L83.4178 31.9803ZM77.8611 31.2616C74.802 31.2616 72.3218 28.725 72.3218 25.5954C72.3218 22.4663 74.802 19.9295 77.8611 19.9295C80.9206 19.9295 83.4003 22.4663 83.4003 25.5954C83.4003 28.725 80.9206 31.2616 77.8611 31.2616Z" fill="white"/>
<path fill-rule="evenodd" clip-rule="evenodd" d="M56.2239 29.7596C57.6823 30.7707 59.2742 31.2618 60.804 31.2618C62.2614 31.2618 63.7681 30.5057 63.7681 29.1896C63.7681 27.4325 60.485 27.1591 58.4223 26.4575C56.3591 25.7559 54.5822 24.3055 54.5822 21.9568C54.5822 18.3628 57.7821 16.8784 60.7687 16.8784C62.6609 16.8784 64.6133 17.5029 65.8791 18.3975C66.315 18.728 66.0496 19.1075 66.0496 19.1075L64.8413 20.8346C64.7055 21.0291 64.468 21.1972 64.1272 20.9866C63.7863 20.7762 62.5907 19.9293 60.7687 19.9293C58.9464 19.9293 57.8488 20.7715 57.8488 21.8153C57.8488 23.067 59.2754 23.4607 60.9463 23.8874C63.8582 24.6729 67.0347 25.6171 67.0347 29.1896C67.0347 32.3561 64.075 34.3131 60.804 34.3131C58.3252 34.3131 56.2148 33.6059 54.4448 32.306C54.076 31.9367 54.3335 31.5938 54.3335 31.5938L55.5359 29.8755C55.7806 29.5542 56.089 29.6663 56.2239 29.7596Z" fill="white"/>
<path fill-rule="evenodd" clip-rule="evenodd" d="M47.8252 31.9803C47.9015 32.8498 48.5971 33.9566 49.802 33.9566H50.5071C50.7804 33.9566 51.0044 33.7327 51.0044 33.4591V17.9535H51.0013C50.987 17.6922 50.7712 17.483 50.5071 17.483H48.3225C48.0583 17.483 47.8425 17.6922 47.8278 17.9535H47.8252V19.2134C46.4867 17.5635 44.3763 16.8787 42.2601 16.8787C37.4498 16.8787 33.5503 20.7811 33.5503 25.5954C33.5503 30.4098 37.4498 34.3124 42.2601 34.3124C44.3763 34.3124 46.6826 33.4912 47.8248 31.9783L47.8252 31.9803ZM42.2686 31.2616C39.2093 31.2616 36.7292 28.725 36.7292 25.5954C36.7292 22.4663 39.2093 19.9295 42.2686 19.9295C45.3278 19.9295 47.8077 22.4663 47.8077 25.5954C47.8077 28.725 45.3278 31.2616 42.2686 31.2616Z" fill="white"/>
<path fill-rule="evenodd" clip-rule="evenodd" d="M21.3395 26.1881C18.1025 26.1881 15.4782 28.8123 15.4782 32.0497C15.4782 35.2868 18.1025 37.911 21.3395 37.911C24.5767 37.911 27.2009 35.2868 27.2009 32.0497C27.2009 28.8123 24.5767 26.1881 21.3395 26.1881ZM6.11134 26.1886C2.87424 26.1886 0.25 28.8123 0.25 32.0497C0.25 35.2868 2.87424 37.911 6.11134 37.911C9.34858 37.911 11.973 35.2868 11.973 32.0497C11.973 28.8123 9.34858 26.1886 6.11134 26.1886ZM19.5867 18.8612C19.5867 22.0986 16.9626 24.7231 13.7255 24.7231C10.4882 24.7231 7.86414 22.0986 7.86414 18.8612C7.86414 15.6245 10.4882 13 13.7255 13C16.9626 13 19.5867 15.6245 19.5867 18.8612Z" fill="white"/>
</g>
<defs>
<clipPath id="clip0_25_7103">
<rect width="127" height="48" fill="white" transform="translate(0.25)"/>
</clipPath>
</defs>
</svg>
