<svg width="122" height="48" viewBox="0 0 122 48" fill="none" xmlns="http://www.w3.org/2000/svg">
<g clip-path="url(#clip0_25_7088)">
<path d="M38.6751 32.4263L40.1432 28.9949C41.7506 30.1853 43.8473 30.8154 45.9445 30.8154C47.4823 30.8154 48.4607 30.2204 48.4607 29.3101C48.4256 26.7889 39.1994 28.7498 39.1292 22.4112C39.0941 19.1897 41.9602 16.7036 46.0146 16.7036C48.4256 16.7036 50.8375 17.2991 52.5497 18.6649L51.1779 22.1696C49.6025 21.1566 47.6567 20.4503 45.8046 20.4503C44.5465 20.4503 43.7075 21.0453 43.7075 21.8162C43.7425 24.3023 53.0395 22.9364 53.1442 28.9949C53.1442 32.2865 50.3478 34.5977 46.3635 34.5977C43.4283 34.5977 40.7371 33.8975 38.6746 32.4263H38.6751ZM97.1331 27.7523C96.7625 28.4108 96.2235 28.9588 95.5712 29.3402C94.919 29.7216 94.177 29.9226 93.4215 29.9227C91.0667 29.9227 89.1579 28.0099 89.1579 25.6506C89.1579 23.2913 91.0667 21.3786 93.4215 21.3786C94.177 21.3787 94.919 21.5797 95.5712 21.9611C96.2235 22.3425 96.7625 22.8905 97.1331 23.549L101.215 21.2834C99.6859 18.5511 96.7697 16.7036 93.4215 16.7036C88.4898 16.7036 84.492 20.709 84.492 25.6506C84.492 30.5918 88.4898 34.5977 93.4215 34.5977C96.7697 34.5977 99.6859 32.7501 101.215 30.0179L97.1331 27.7523ZM55.7927 34.2473H60.8953V9.25574H55.7932L55.7927 34.2473ZM103.792 9.25574V34.2473H108.894V26.7599L114.94 34.2473H121.463L113.774 25.3524L120.903 17.0524H114.661L108.894 23.953V9.25574H103.792ZM76.6155 17.0535V19.085C75.777 17.684 73.7149 16.7036 71.5481 16.7036C67.0745 16.7036 63.5448 20.6608 63.5448 25.6331C63.5448 30.6053 67.0745 34.5977 71.5481 34.5977C73.7149 34.5977 75.777 33.6173 76.6155 32.2163V34.2473H81.7181V17.0535H76.6155ZM76.6155 27.7869C75.8817 29.0124 74.3439 29.9222 72.6317 29.9222C70.2764 29.9222 68.3677 28.0099 68.3677 25.6506C68.3677 23.2913 70.2764 21.3786 72.6317 21.3786C74.3439 21.3786 75.8817 22.3239 76.6155 23.584V27.7869Z" fill="white"/>
<path d="M11.7283 8.70361C10.0747 8.70361 8.73442 10.0469 8.73442 11.7035C8.73402 12.0971 8.81115 12.4868 8.96139 12.8506C9.11163 13.2143 9.33205 13.5449 9.61006 13.8235C9.88806 14.1021 10.2182 14.3231 10.5817 14.4741C10.9451 14.6251 11.3347 14.703 11.7283 14.7034H14.7227V11.7035C14.7233 10.9086 14.4082 10.1461 13.8467 9.58348C13.2852 9.0209 12.5232 8.70441 11.7283 8.70361ZM11.7283 16.7033H3.74412C2.09055 16.7033 0.750244 18.0466 0.750244 19.7037C0.750244 21.3603 2.09055 22.7036 3.74412 22.7036H11.7288C13.3819 22.7036 14.7227 21.3603 14.7227 19.7037C14.7227 18.0466 13.3819 16.7033 11.7283 16.7033Z" fill="white"/>
<path d="M30.6911 19.7037C30.6911 18.0466 29.3503 16.7033 27.6967 16.7033C26.0432 16.7033 24.7029 18.0466 24.7029 19.7037V22.7036H27.6967C28.4916 22.7028 29.2536 22.3863 29.8152 21.8237C30.3767 21.2612 30.6918 20.4986 30.6911 19.7037ZM22.7069 19.7037V11.7035C22.7076 10.9086 22.3925 10.1461 21.831 9.58348C21.2694 9.0209 20.5074 8.70441 19.7126 8.70361C18.059 8.70361 16.7187 10.0469 16.7187 11.7035V19.7032C16.7187 21.3608 18.059 22.7041 19.7126 22.7041C20.5074 22.7033 21.2694 22.3868 21.831 21.8242C22.3925 21.2617 22.7076 20.4991 22.7069 19.7042" fill="white"/>
<path d="M19.7126 38.7036C20.5075 38.7028 21.2695 38.3863 21.831 37.8237C22.3926 37.2612 22.7077 36.4986 22.707 35.7037C22.7077 34.9088 22.3926 34.1463 21.831 33.5837C21.2695 33.0211 20.5075 32.7046 19.7126 32.7038H16.7188V35.7037C16.7188 37.3603 18.0591 38.7036 19.7126 38.7036ZM19.7126 30.7039H27.6973C29.3504 30.7039 30.6912 29.3606 30.6912 27.7035C30.6918 26.9086 30.3768 26.1461 29.8152 25.5835C29.2537 25.0209 28.4917 24.7044 27.6968 24.7036H19.7126C18.0591 24.7036 16.7188 26.0469 16.7188 27.7035C16.7184 28.0971 16.7955 28.4868 16.9457 28.8506C17.096 29.2143 17.3164 29.5449 17.5944 29.8235C17.8724 30.1021 18.2026 30.3231 18.566 30.4741C18.9294 30.6251 19.3191 30.703 19.7126 30.7034" fill="white"/>
<path d="M0.750002 27.7035C0.749606 28.0971 0.826732 28.4868 0.976974 28.8506C1.12722 29.2143 1.34763 29.5449 1.62564 29.8235C1.90365 30.1021 2.2338 30.3231 2.59725 30.4741C2.9607 30.6251 3.35032 30.703 3.74388 30.7034C4.53875 30.7026 5.30075 30.3861 5.86229 29.8235C6.42383 29.261 6.73892 28.4984 6.73826 27.7035V24.7036H3.74388C2.0903 24.7036 0.750002 26.0469 0.750002 27.7035ZM8.73417 27.7035V35.7032C8.73417 37.3603 10.0745 38.7036 11.7281 38.7036C12.5229 38.7028 13.2849 38.3863 13.8465 37.8237C14.408 37.2612 14.7231 36.4986 14.7224 35.7037V27.7035C14.7228 27.3099 14.6457 26.9201 14.4954 26.5563C14.3451 26.1925 14.1247 25.8619 13.8466 25.5833C13.5686 25.3048 13.2383 25.0837 12.8748 24.9327C12.5113 24.7818 12.1216 24.7039 11.7281 24.7036C10.0745 24.7036 8.73417 26.0469 8.73417 27.7035Z" fill="white"/>
</g>
<defs>
<clipPath id="clip0_25_7088">
<rect width="121" height="48" fill="white" transform="translate(0.75)"/>
</clipPath>
</defs>
</svg>
