<svg width="134" height="48" viewBox="0 0 134 48" fill="none" xmlns="http://www.w3.org/2000/svg">
<g clip-path="url(#clip0_25_7094)">
<path d="M15.135 6H0.5V41L15.135 6Z" fill="white"/>
<path d="M25.4321 6H40.048V41L25.4321 6Z" fill="white"/>
<path d="M20.2837 18.8998L29.5986 41H23.4872L20.7032 33.9638H13.8862L20.2837 18.8998Z" fill="white"/>
<path d="M63.9236 28.2578L65.6493 33.206C65.7065 33.33 65.7923 33.3872 65.9448 33.3872H69.2627C69.4439 33.3872 69.4725 33.3014 69.4439 33.1202L62.5888 14.0804C62.5602 13.9279 62.5316 13.8993 62.379 13.8993H58.2603C58.1459 13.8993 58.0791 13.9851 58.0791 14.109C58.0219 15.1101 57.9361 15.4152 57.8122 15.7108L51.7007 33.0916C51.6721 33.3014 51.7389 33.3872 51.9105 33.3872H54.8756C55.0568 33.3872 55.1426 33.33 55.2093 33.1488L56.8397 28.2578H63.9236ZM57.7836 25.0257C58.6798 22.318 59.862 18.8475 60.3387 16.8644H60.3673C60.9584 18.9429 62.3504 23.0616 62.9797 25.0257H57.7836Z" fill="white"/>
<path d="M78.2567 33.6827C80.0396 33.6827 81.9369 33.3585 83.8628 32.5291C84.0154 32.4719 84.044 32.4051 84.044 32.2621C83.9867 31.7282 83.92 30.9559 83.92 30.3648V12.4405C83.92 12.3261 83.92 12.2689 83.777 12.2689H80.5449C80.421 12.2689 80.3638 12.3261 80.3638 12.4787V18.552C79.8584 18.4947 79.5057 18.4661 79.0862 18.4661C73.871 18.4661 70.6675 21.908 70.6675 26.2079C70.6675 31.1943 73.9568 33.6827 78.2567 33.6827ZM80.3638 30.3648C79.8298 30.5364 79.2387 30.6032 78.6381 30.6032C76.2736 30.6032 74.3381 29.2684 74.3381 26.0268C74.3381 23.157 76.3308 21.4599 78.9718 21.4599C79.5057 21.4599 79.9729 21.5171 80.3638 21.6696V30.3648Z" fill="white"/>
<path d="M94.3548 18.4662C89.9024 18.4662 87.147 21.8794 87.147 26.0935C87.147 29.8595 89.3398 33.6828 94.2881 33.6828C98.4736 33.6828 101.41 30.6032 101.41 25.9982C101.41 21.9366 98.9217 18.4662 94.3548 18.4662ZM94.1737 21.4599C96.6907 21.4599 97.7585 23.6242 97.7585 26.0935C97.7585 29.1445 96.1854 30.6604 94.3548 30.6604C92.0952 30.6604 90.7604 28.7631 90.7604 26.0268C90.7604 23.2142 92.181 21.4599 94.1737 21.4599Z" fill="white"/>
<path d="M104.752 12.2689C104.628 12.2689 104.542 12.3261 104.542 12.4787V32.7674C104.542 32.8532 104.628 33.0058 104.752 33.0344C106.172 33.4729 107.66 33.6827 109.195 33.6827C113.59 33.6827 117.861 30.9559 117.861 25.4642C117.861 21.4885 115.134 18.4661 110.863 18.4661C109.881 18.4661 108.966 18.6187 108.165 18.8856L108.127 12.5073C108.127 12.2975 108.07 12.2689 107.86 12.2689H104.752ZM114.21 25.8265C114.21 29.1158 111.96 30.6604 109.528 30.6604C109.023 30.6604 108.575 30.6318 108.165 30.5078V21.8508C108.632 21.6696 109.195 21.5171 110.234 21.5171C112.579 21.5171 114.21 23.0044 114.21 25.8265Z" fill="white"/>
<path d="M129.923 26.8944C131.372 26.8944 132.564 26.8658 132.974 26.7705C133.127 26.7419 133.184 26.6847 133.213 26.5607C133.298 26.2365 133.337 25.5596 133.337 24.7301C133.337 21.908 131.639 18.4662 127.254 18.4662C122.773 18.4662 120.284 22.1178 120.284 26.2365C120.284 29.8881 122.21 33.6828 127.606 33.6828C129.628 33.6828 130.934 33.3586 132.059 32.8247C132.173 32.7675 132.231 32.6721 132.231 32.5005V30.0312C132.231 29.8881 132.145 29.8595 132.059 29.9167C130.934 30.3935 129.714 30.6318 128.379 30.6318C125.356 30.6318 123.984 28.9633 123.898 26.8944H129.923ZM123.898 24.3392C124.136 22.8901 125.051 21.3169 127.101 21.3169C129.361 21.3169 129.952 23.2142 129.952 24.0723C129.952 24.1009 129.952 24.2248 129.952 24.3106C129.828 24.3392 129.447 24.3392 128.322 24.3392H123.898Z" fill="white"/>
</g>
<defs>
<clipPath id="clip0_25_7094">
<rect width="133" height="48" fill="white" transform="translate(0.5)"/>
</clipPath>
</defs>
</svg>
